<?xml version="1.0" encoding="UTF-8" standalone="no"?>
<!-- Created with Inkscape (http://www.inkscape.org/) -->

<svg
   width="512"
   height="512"
   viewBox="0 0 135.46666 135.46667"
   version="1.1"
   id="svg1"
   xml:space="preserve"
   inkscape:version="1.3.2 (091e20ef0f, 2023-11-25, custom)"
   sodipodi:docname="bitwize.svg"
   xmlns:inkscape="http://www.inkscape.org/namespaces/inkscape"
   xmlns:sodipodi="http://sodipodi.sourceforge.net/DTD/sodipodi-0.dtd"
   xmlns="http://www.w3.org/2000/svg"
   xmlns:svg="http://www.w3.org/2000/svg"
   xmlns:rdf="http://www.w3.org/1999/02/22-rdf-syntax-ns#"
   xmlns:cc="http://creativecommons.org/ns#"
   xmlns:dc="http://purl.org/dc/elements/1.1/"><title
     id="title1">Bitwize Logo</title><sodipodi:namedview
     id="namedview1"
     pagecolor="#ffffff"
     bordercolor="#000000"
     borderopacity="0.25"
     inkscape:showpageshadow="2"
     inkscape:pageopacity="0.0"
     inkscape:pagecheckerboard="false"
     inkscape:deskcolor="#d1d1d1"
     inkscape:document-units="mm"
     inkscape:zoom="1.0318224"
     inkscape:cx="251.98135"
     inkscape:cy="274.75659"
     inkscape:window-width="1920"
     inkscape:window-height="1023"
     inkscape:window-x="0"
     inkscape:window-y="29"
     inkscape:window-maximized="1"
     inkscape:current-layer="layer1" /><defs
     id="defs1" /><g
     inkscape:label="Layer 1"
     inkscape:groupmode="layer"
     id="layer1"><rect
       style="fill:#006b97;fill-opacity:1;stroke-width:2.10685;stroke-linecap:round"
       id="rect1"
       width="135.46666"
       height="135.46666"
       x="0"
       y="0" /><g
       id="g1"
       transform="matrix(0.98633661,0,0,0.98633661,-0.0116901,4.3877973)"><path
         d="m 16.207634,63.413212 -0.485898,-2.429487 q -0.485897,-0.202457 -0.911057,-0.42516 -0.42516,-0.222703 -0.870566,-0.546634 l -2.348504,0.728845 -1.6196574,-2.753417 1.8626064,-1.619658 q -0.08098,-0.526389 -0.08098,-1.052777 0,-0.52639 0.08098,-1.052778 l -1.8626064,-1.619658 1.6196574,-2.753418 2.348504,0.728846 q 0.445406,-0.323932 0.870566,-0.546634 0.42516,-0.222704 0.911057,-0.425161 l 0.485898,-2.429486 h 3.239315 l 0.485897,2.429486 q 0.485897,0.202457 0.911058,0.425161 0.42516,0.222702 0.870566,0.546634 l 2.348503,-0.728846 1.619658,2.753418 -1.862606,1.619658 q 0.08098,0.526388 0.08098,1.052778 0,0.526388 -0.08098,1.052777 l 1.862606,1.619658 -1.619658,2.753417 -2.348503,-0.728845 q -0.445406,0.323931 -0.870566,0.546634 -0.425161,0.222703 -0.911058,0.42516 l -0.485897,2.429487 z m 1.619657,-4.858973 q 1.336217,0 2.287766,-0.951549 0.951549,-0.951549 0.951549,-2.287766 0,-1.336218 -0.951549,-2.287768 -0.951549,-0.951548 -2.287766,-0.951548 -1.336218,0 -2.287766,0.951548 -0.951549,0.95155 -0.951549,2.287768 0,1.336217 0.951549,2.287766 0.951548,0.951549 2.287766,0.951549 z M 30.70357,81.229446 29.974724,77.828165 q -0.688355,-0.242948 -1.275481,-0.587126 -0.587125,-0.344177 -1.154006,-0.789582 l -3.239315,1.052777 -2.267521,-3.887179 2.591453,-2.26752 q -0.08098,-0.728846 -0.08098,-1.457692 0,-0.728846 0.08098,-1.457692 l -2.591453,-2.267521 2.267521,-3.887178 3.239315,1.052777 q 0.566881,-0.445406 1.154006,-0.789583 0.587126,-0.344178 1.275481,-0.587126 l 0.728846,-3.401281 h 4.535041 l 0.728846,3.401281 q 0.688355,0.242948 1.275481,0.587126 0.587125,0.344177 1.154006,0.789583 l 3.239316,-1.052777 2.26752,3.887178 -2.591452,2.267521 q 0.08098,0.728846 0.08098,1.457692 0,0.728846 -0.08098,1.457692 l 2.591452,2.26752 -2.26752,3.887179 -3.239316,-1.052777 q -0.566881,0.445405 -1.154006,0.789582 -0.587126,0.344178 -1.275481,0.587126 l -0.728846,3.401281 z m 2.267521,-6.47863 q 2.024572,0 3.441772,-1.417201 1.4172,-1.4172 1.4172,-3.441772 0,-2.024573 -1.4172,-3.441773 -1.4172,-1.417201 -3.441772,-1.417201 -2.024572,0 -3.441773,1.417201 -1.4172,1.4172 -1.4172,3.441773 0,2.024572 1.4172,3.441772 1.417201,1.417201 3.441773,1.417201 z"
         id="path1"
         style="fill:#ffffff;fill-opacity:1;stroke-width:0.0404914" /><text
         xml:space="preserve"
         style="font-size:25.4px;fill:#ffffff;fill-opacity:1;stroke:#ffffff;stroke-width:2.065;stroke-linecap:round"
         x="46.940994"
         y="73.717834"
         id="text1"><tspan
           sodipodi:role="line"
           id="tspan1"
           style="font-style:normal;font-variant:normal;font-weight:normal;font-stretch:normal;font-size:25.4px;font-family:Roboto;-inkscape-font-specification:Roboto;stroke:none;stroke-width:2.065;fill:#ffffff;fill-opacity:1"
           x="46.940994"
           y="73.717834">Bitwize</tspan></text></g></g><metadata
     id="metadata1"><rdf:RDF><cc:Work
         rdf:about=""><dc:title>Bitwize Logo</dc:title><dc:creator><cc:Agent><dc:title>infinity-atom</dc:title></cc:Agent></dc:creator><dc:rights><cc:Agent><dc:title>All Rights Reserved</dc:title></cc:Agent></dc:rights><dc:source>https://github.com/bitwize-app</dc:source></cc:Work></rdf:RDF></metadata></svg>
